/* XPM */
static char * dogpu32_xpm[] = {
"32 33 675 2",
"  	c None",
". 	c #FFFFFF",
"+ 	c #F9F6EB",
"@ 	c #E5D8AA",
"# 	c #D7BF6D",
"$ 	c #D3B340",
"% 	c #D5AD24",
"& 	c #D8AE19",
"* 	c #D6AB19",
"= 	c #D8B124",
"- 	c #D8B63F",
"; 	c #DAC16B",
"> 	c #E5D7A8",
", 	c #F8F5E9",
"' 	c #F2ECD6",
") 	c #D5BD69",
"! 	c #D4AB18",
"~ 	c #E9B500",
"{ 	c #FDC500",
"] 	c #FFC800",
"^ 	c #FDC400",
"/ 	c #EFBA00",
"( 	c #FFCA00",
"_ 	c #D4A500",
": 	c #886A01",
"< 	c #B18901",
"[ 	c #E9B600",
"} 	c #D4AA17",
"| 	c #D7BE65",
"1 	c #F1EBD3",
"2 	c #FCFAF5",
"3 	c #D9C57D",
"4 	c #D6A90C",
"5 	c #F9C200",
"6 	c #FFCC00",
"7 	c #FEC600",
"8 	c #AE8701",
"9 	c #A27E00",
"0 	c #A58001",
"a 	c #675002",
"b 	c #B68D01",
"c 	c #6F5601",
"d 	c #6E5501",
"e 	c #876901",
"f 	c #CFA200",
"g 	c #795E01",
"h 	c #B99001",
"i 	c #DEAF0A",
"j 	c #DBC578",
"k 	c #FBF9F3",
"l 	c #F4EEDA",
"m 	c #D3B138",
"n 	c #F3BE00",
"o 	c #FFD000",
"p 	c #BE9401",
"q 	c #8A6B01",
"r 	c #B18A01",
"s 	c #5F4A01",
"t 	c #705701",
"u 	c #534002",
"v 	c #8E6E01",
"w 	c #6B5301",
"x 	c #896A01",
"y 	c #9A7801",
"z 	c #544102",
"A 	c #E3B000",
"B 	c #CB9D00",
"C 	c #D4B133",
"D 	c #F0E9CF",
"E 	c #CEA61D",
"F 	c #B38B01",
"G 	c #866801",
"H 	c #AC8501",
"I 	c #7E6201",
"J 	c #715801",
"K 	c #735901",
"L 	c #664E02",
"M 	c #8F6F01",
"N 	c #7A5F01",
"O 	c #A37F00",
"P 	c #604B01",
"Q 	c #7D6101",
"R 	c #644D02",
"S 	c #AC8600",
"T 	c #725801",
"U 	c #CCA419",
"V 	c #EFE6CA",
"W 	c #F4EEDB",
"X 	c #D2A91C",
"Y 	c #F1BC00",
"Z 	c #614B02",
"` 	c #795D01",
" .	c #644D01",
"..	c #906F01",
"+.	c #9B7901",
"@.	c #957301",
"#.	c #695101",
"$.	c #D3A401",
"%.	c #D0A101",
"&.	c #D2A401",
"*.	c #C79B01",
"=.	c #B78F01",
"-.	c #A68101",
";.	c #EBB700",
">.	c #7C6001",
",.	c #F1BB00",
"'.	c #D3A918",
").	c #F3ECD7",
"!.	c #FCFBF6",
"~.	c #D1AE34",
"{.	c #604A02",
"].	c #BC9200",
"^.	c #D5A600",
"/.	c #D0A201",
"(.	c #BD9300",
"_.	c #B28B00",
":.	c #C49901",
"<.	c #BD9401",
"[.	c #BF9501",
"}.	c #BB9100",
"|.	c #CD9F01",
"1.	c #DBAA00",
"2.	c #856701",
"3.	c #5D4802",
"4.	c #6D5401",
"5.	c #FCC400",
"6.	c #CDAA2F",
"7.	c #D9C57C",
"8.	c #C69B01",
"9.	c #C19601",
"0.	c #E5B200",
"a.	c #CB9E01",
"b.	c #C59901",
"c.	c #876B08",
"d.	c #665210",
"e.	c #A58000",
"f.	c #B28B01",
"g.	c #AE8700",
"h.	c #755E10",
"i.	c #6D5814",
"j.	c #AF8800",
"k.	c #C19701",
"l.	c #C99C01",
"m.	c #967501",
"n.	c #C89B00",
"o.	c #F2BC00",
"p.	c #F3BD00",
"q.	c #FEC500",
"r.	c #D7C174",
"s.	c #F3EEDA",
"t.	c #D9AA09",
"u.	c #D1A401",
"v.	c #AC8602",
"w.	c #8E6F02",
"x.	c #9A7802",
"y.	c #E7B400",
"z.	c #D4A501",
"A.	c #A88300",
"B.	c #856A32",
"C.	c #BA6D48",
"D.	c #6D4F00",
"E.	c #A68000",
"F.	c #796105",
"G.	c #C39866",
"H.	c #C1884F",
"I.	c #795E00",
"J.	c #B89001",
"K.	c #BB9101",
"L.	c #D7A701",
"M.	c #DEAC00",
"N.	c #E4B100",
"O.	c #EDB900",
"P.	c #F6BF00",
"Q.	c #D7A806",
"R.	c #F2EBD4",
"S.	c #D4BD68",
"T.	c #F7BF00",
"U.	c #FFC900",
"V.	c #CEA001",
"W.	c #CA9D01",
"X.	c #BE9301",
"Y.	c #B58D01",
"Z.	c #967500",
"`.	c #6E5423",
" +	c #8E6034",
".+	c #736135",
"++	c #74632B",
"@+	c #80672F",
"#+	c #C8864B",
"$+	c #E39253",
"%+	c #765713",
"&+	c #A48000",
"*+	c #BC9201",
"=+	c #C89B01",
"-+	c #DFAD00",
";+	c #EAB600",
">+	c #F4BE00",
",+	c #FFC700",
"'+	c #F8C000",
")+	c #D3BA60",
"!+	c #F9F7ED",
"~+	c #D4A814",
"{+	c #F7C000",
"]+	c #F2BD00",
"^+	c #6B5402",
"/+	c #836602",
"(+	c #7B6002",
"_+	c #745A02",
":+	c #866800",
"<+	c #755E0B",
"[+	c #978A67",
"}+	c #DFBA85",
"|+	c #FBBA79",
"1+	c #F7B271",
"2+	c #E4A35D",
"3+	c #8B5925",
"4+	c #B87F40",
"5+	c #97682D",
"6+	c #7B6100",
"7+	c #735A02",
"8+	c #755B02",
"9+	c #7B5F02",
"0+	c #806402",
"a+	c #856802",
"b+	c #8B6C02",
"c+	c #886A02",
"d+	c #AA8501",
"e+	c #D5AA10",
"f+	c #F8F4E8",
"g+	c #E5D8AB",
"h+	c #8A6B02",
"i+	c #AC8601",
"j+	c #A98300",
"k+	c #7D6102",
"l+	c #9F8F6A",
"m+	c #FFCE96",
"n+	c #FFAC59",
"o+	c #FFD4A2",
"p+	c #FFBF7F",
"q+	c #FFB163",
"r+	c #DD9854",
"s+	c #D39550",
"t+	c #A77138",
"u+	c #604D00",
"v+	c #9D7A01",
"w+	c #A17D01",
"x+	c #AF8801",
"y+	c #D6A600",
"z+	c #C99C00",
"A+	c #8A6C02",
"B+	c #ECB700",
"C+	c #E3D5A3",
"D+	c #D6BF6C",
"E+	c #F9C100",
"F+	c #F5BE00",
"G+	c #D0A200",
"H+	c #826502",
"I+	c #8E6E02",
"J+	c #8D6E05",
"K+	c #67581E",
"L+	c #917442",
"M+	c #F8A95C",
"N+	c #F9AB61",
"O+	c #CEA275",
"P+	c #F3AF6D",
"Q+	c #FDAE61",
"R+	c #FFB065",
"S+	c #FFB76A",
"T+	c #9D6C32",
"U+	c #5C4207",
"V+	c #8B6D01",
"W+	c #7A6003",
"X+	c #846703",
"Y+	c #8C6D03",
"Z+	c #937203",
"`+	c #A58002",
" @	c #917102",
".@	c #FAC200",
"+@	c #D5BC64",
"@@	c #D2B13E",
"#@	c #F8C100",
"$@	c #A07C02",
"%@	c #907002",
"&@	c #8C6D02",
"*@	c #493D14",
"=@	c #967848",
"-@	c #E9AA66",
";@	c #FFB15E",
">@	c #B78655",
",@	c #253851",
"'@	c #9A6F47",
")@	c #FFB35F",
"!@	c #FDAA5B",
"~@	c #FEB063",
"{@	c #E39453",
"]@	c #905223",
"^@	c #7E6400",
"/@	c #917002",
"(@	c #AA8502",
"_@	c #D2A400",
":@	c #D3B038",
"<@	c #D4AC23",
"[@	c #665002",
"}@	c #8B6D02",
"|@	c #C79A01",
"1@	c #856703",
"2@	c #52451E",
"3@	c #928662",
"4@	c #FFF1DD",
"5@	c #FEEAD3",
"6@	c #E1D8CD",
"7@	c #7D8694",
"8@	c #D8D3CB",
"9@	c #FEE9CD",
"0@	c #FBCC9A",
"a@	c #FEB062",
"b@	c #FFA760",
"c@	c #A55A2F",
"d@	c #A17E01",
"e@	c #9C7901",
"f@	c #8E6F01",
"g@	c #987601",
"h@	c #A98401",
"i@	c #D0A100",
"j@	c #D5AD21",
"k@	c #D5AB18",
"l@	c #EEB900",
"m@	c #EAB500",
"n@	c #B68E01",
"o@	c #C09501",
"p@	c #8C6D01",
"q@	c #695C30",
"r@	c #A6A08A",
"s@	c #B5B2A0",
"t@	c #FAFEFF",
"u@	c #FCFFFF",
"v@	c #FED8AA",
"w@	c #F79853",
"x@	c #A0562C",
"y@	c #806600",
"z@	c #A07D01",
"A@	c #9F7C01",
"B@	c #957401",
"C@	c #AE8801",
"D@	c #CFA100",
"E@	c #D7AC17",
"F@	c #D1A200",
"G@	c #6D5501",
"H@	c #705603",
"I@	c #8B8369",
"J@	c #E7E6E3",
"K@	c #FDFFFA",
"L@	c #FDFFF9",
"M@	c #FEFFFF",
"N@	c #FCDDB8",
"O@	c #E67A43",
"P@	c #8D5120",
"Q@	c #7C6400",
"R@	c #7D6202",
"S@	c #876902",
"T@	c #A88302",
"U@	c #DCAB00",
"V@	c #D3A400",
"W@	c #8F6F02",
"X@	c #D4AC22",
"Y@	c #A37F02",
"Z@	c #715802",
"`@	c #927202",
" #	c #634D02",
".#	c #987600",
"+#	c #826400",
"@#	c #817343",
"##	c #B8AE98",
"$#	c #DAD1C1",
"%#	c #F3EEE6",
"&#	c #FDFFFF",
"*#	c #FDFEF9",
"=#	c #F5D8C0",
"-#	c #E68855",
";#	c #B25B30",
">#	c #684E07",
",#	c #8A6D01",
"'#	c #795E02",
")#	c #A68102",
"!#	c #CFA101",
"~#	c #DDAC00",
"{#	c #8F7002",
"]#	c #D5AD20",
"^#	c #D2B13D",
"/#	c #FBC300",
"(#	c #937302",
"_#	c #957402",
":#	c #765C02",
"<#	c #A07C01",
"[#	c #806401",
"}#	c #846400",
"|#	c #594200",
"1#	c #8E8569",
"2#	c #EED8BE",
"3#	c #FCD1A5",
"4#	c #FCBD7D",
"5#	c #EE9451",
"6#	c #D86E3E",
"7#	c #C8633C",
"8#	c #75550B",
"9#	c #8F7100",
"0#	c #AB8501",
"a#	c #A78201",
"b#	c #B98F00",
"c#	c #FCC300",
"d#	c #D2B037",
"e#	c #D6BE6A",
"f#	c #AA8402",
"g#	c #987602",
"h#	c #D2A301",
"i#	c #997702",
"j#	c #5D4902",
"k#	c #886900",
"l#	c #988C66",
"m#	c #FFDDB0",
"n#	c #FFB669",
"o#	c #FFAE5E",
"p#	c #FEAB5E",
"q#	c #FFB164",
"r#	c #F3A15C",
"s#	c #DF7446",
"t#	c #8B521E",
"u#	c #7E6500",
"v#	c #AA8401",
"w#	c #927101",
"x#	c #D6A700",
"y#	c #D5BB62",
"z#	c #E4D7A8",
"A#	c #A78202",
"B#	c #7E6203",
"C#	c #997701",
"D#	c #D5A501",
"E#	c #856702",
"F#	c #836500",
"G#	c #7C630C",
"H#	c #BC9562",
"I#	c #A6742F",
"J#	c #946B2F",
"K#	c #B37B38",
"L#	c #F7AA5F",
"M#	c #FFB064",
"N#	c #FEB064",
"O#	c #F69C5C",
"P#	c #945628",
"Q#	c #8A6E00",
"R#	c #A17D02",
"S#	c #B58C02",
"T#	c #DDAB00",
"U#	c #E3D4A1",
"V#	c #D3A912",
"W#	c #7F6302",
"X#	c #DEAD00",
"Y#	c #CDA001",
"Z#	c #B68D00",
"`#	c #755D07",
" $	c #503D06",
".$	c #847652",
"+$	c #BEB8A3",
"@$	c #CCC9B9",
"#$	c #9E9D86",
"$$	c #86652D",
"%$	c #F7AB60",
"&$	c #FEAF64",
"*$	c #FFB066",
"=$	c #9C612E",
"-$	c #6E5700",
";$	c #907102",
">$	c #947402",
",$	c #A68202",
"'$	c #967502",
")$	c #FFCB00",
"!$	c #D5A90E",
"~$	c #F7F3E6",
"{$	c #D4BB64",
"]$	c #FFC600",
"^$	c #987702",
"/$	c #C79A00",
"($	c #7B6417",
"_$	c #87744C",
":$	c #8C8365",
"<$	c #FCF4D9",
"[$	c #FFD094",
"}$	c #FFCC96",
"|$	c #FFDCAB",
"1$	c #978D6C",
"2$	c #BC823B",
"3$	c #FFB467",
"4$	c #FFB266",
"5$	c #E48A50",
"6$	c #5C3C0C",
"7$	c #876B00",
"8$	c #E3B100",
"9$	c #EEB800",
"0$	c #FBC400",
"a$	c #D3B85C",
"b$	c #D6A908",
"c$	c #D5A601",
"d$	c #725902",
"e$	c #846600",
"f$	c #998253",
"g$	c #957847",
"h$	c #E2DBC4",
"i$	c #FFD59B",
"j$	c #FDAD61",
"k$	c #FBA858",
"l$	c #EDAA5E",
"m$	c #A5895A",
"n$	c #A3672E",
"o$	c #FFB367",
"p$	c #FEA35F",
"q$	c #945428",
"r$	c #5E440C",
"s$	c #937301",
"t$	c #8D6E02",
"u$	c #947302",
"v$	c #AD8701",
"w$	c #DEAD05",
"x$	c #F1EAD1",
"y$	c #D7C278",
"z$	c #FFCE00",
"A$	c #A48002",
"B$	c #9D7B00",
"C$	c #9F7C4A",
"D$	c #927E54",
"E$	c #FCE6C0",
"F$	c #FCBD7C",
"G$	c #FFB66B",
"H$	c #B27D3B",
"I$	c #634514",
"J$	c #7B501D",
"K$	c #CC6F3E",
"L$	c #FDAC63",
"M$	c #FFA961",
"N$	c #B16333",
"O$	c #6A4414",
"P$	c #906F03",
"Q$	c #7A6001",
"R$	c #EDB700",
"S$	c #D5BF6F",
"T$	c #FCFAF4",
"U$	c #CDAA30",
"V$	c #FEC900",
"W$	c #D8A801",
"X$	c #A78102",
"Y$	c #AE8900",
"Z$	c #8E682C",
"`$	c #938055",
" %	c #FCE5BE",
".%	c #FEAD5D",
"+%	c #FFB364",
"@%	c #CA8F4A",
"#%	c #604210",
"$%	c #774416",
"%%	c #BE763E",
"&%	c #FEB164",
"*%	c #FFB162",
"=%	c #FCA55F",
"-%	c #B16132",
";%	c #684412",
">%	c #A88103",
",%	c #D9A800",
"'%	c #FBC200",
")%	c #FDC600",
"!%	c #CDA92B",
"~%	c #FBF9F1",
"{%	c #F3EDD8",
"]%	c #D1A718",
"^%	c #F5BF00",
"/%	c #EAB700",
"(%	c #AB8601",
"_%	c #6B511C",
":%	c #7D5F2D",
"<%	c #E2D5B9",
"[%	c #FFBE76",
"}%	c #F09956",
"|%	c #FEAE64",
"1%	c #DB9D55",
"2%	c #986E31",
"3%	c #D27F47",
"4%	c #FFB365",
"5%	c #F18B53",
"6%	c #965325",
"7%	c #694414",
"8%	c #B08901",
"9%	c #FEC700",
"0%	c #D0A714",
"a%	c #F1EAD2",
"b%	c #EEE6CA",
"c%	c #D1A819",
"d%	c #8D6E03",
"e%	c #7C5533",
"f%	c #603F0E",
"g%	c #84744D",
"h%	c #F3AF7A",
"i%	c #F59A58",
"j%	c #E88C51",
"k%	c #F09055",
"l%	c #F48D56",
"m%	c #D87040",
"n%	c #E19050",
"o%	c #F28D54",
"p%	c #BA6135",
"q%	c #784A1A",
"r%	c #9A532F",
"s%	c #866902",
"t%	c #FCC600",
"u%	c #D0A715",
"v%	c #EDE3C4",
"w%	c #F2ECD5",
"x%	c #CEAB32",
"y%	c #F2BF00",
"z%	c #765506",
"A%	c #5B4407",
"B%	c #403300",
"C%	c #735023",
"D%	c #BE6B3F",
"E%	c #D47546",
"F%	c #CB673E",
"G%	c #B65D35",
"H%	c #6E4317",
"I%	c #79461C",
"J%	c #8D4E23",
"K%	c #594107",
"L%	c #624609",
"M%	c #765608",
"N%	c #F3C100",
"O%	c #CEAB2E",
"P%	c #FBF9F2",
"Q%	c #D7C175",
"R%	c #DBAD08",
"S%	c #E8B600",
"T%	c #E4B300",
"U%	c #C59900",
"V%	c #9B7A00",
"W%	c #7B5E02",
"X%	c #714F0A",
"Y%	c #71510A",
"Z%	c #7D6002",
"`%	c #917300",
" &	c #957500",
".&	c #A88600",
"+&	c #D9AA00",
"@&	c #E5B400",
"#&	c #E8B700",
"$&	c #DDAC07",
"%&	c #D6BF70",
"&&	c #FAF8EF",
"*&	c #F0E9D0",
"=&	c #D6BC62",
"-&	c #DAAE13",
";&	c #F1BD00",
">&	c #F0BC00",
",&	c #DBAE12",
"'&	c #D5BB5E",
")&	c #F0E8CD",
"!&	c #F7F3E5",
"~&	c #D5BD65",
"{&	c #D4B23A",
"]&	c #D8B022",
"^&	c #DAAF18",
"/&	c #D9AD18",
"(&	c #D5AE22",
"_&	c #D3B139",
":&	c #D5BC63",
"<&	c #F6F2E3",
"[&	c #A7D4A5",
"}&	c #A9D7A8",
"|&	c #A9D6A6",
"1&	c #ABD8A8",
"2&	c #ABD9A8",
". . . . . . . . . . + @ # $ % & * = - ; > , . . . . . . . . . . ",
". . . . . . . . ' ) ! ~ { ] ^ / ( _ : < [ } | 1 . . . . . . . . ",
". . . . . . 2 3 4 5 6 7 8 9 0 a b c d e f g h i j k . . . . . . ",
". . . . . l m n o p q r s t d u v w w x y z w A B C ' . . . . . ",
". . . . D E F G H I d J K L M N b O P Q R I S T x _ U V . . . . ",
". . . W X Y Z `  ...K +.@.#.p $.%.&.*.=.-.;.0 >.e a ,.'.).. . . ",
". . !.~.( 6 _ K {.].^./.(._.:.<.[.}.].|.$.1.2.3.4.1.{ 5.6.k . . ",
". . 7.|.8.9.0.8 2.$.a.b.c.d.e.f.g.h.i.j.k.l.b.m.n.o.p.q.,.r.. . ",
". s.t.u.v.w.x.y.z.*.p A.B.C.D.E.F.G.H.I.J.K.*.L.M.N.O.P.] Q.R.. ",
". S.T.U.] V.x.M.W.X.Y.Z.`. +.+++@+#+$+%+&+r *+=+$.-+;+>+,+'+)+. ",
"!+~+] {+]+*.^+/+(+_+:+<+[+}+|+1+2+3+4+5+6+7+8+9+0+a+b+c+d+6 e+f+",
"g+~ ,+p.o.*.h+p i+j+k+l+m+n+o+p+q+r+s+t+u+v+w+x+*+l.y+z+A+] B+C+",
"D+E+5.F+G+H+I+W.f.J+K+L+M+N+O+P+Q+R+S+T+U+V+W+X+Y+Z+`+^. @^ .@+@",
"@@,+5 #@$@7+%@*.&@*@=@-@;@>@,@'@)@!@~@{@]@^@a+/@$@(@*+_@%@.@,+:@",
"<@] #@F+< [@}@|@1@2@3@4@5@6@7@8@9@0@a@b@c@^@d@e@f@g@h@i@%@#@] j@",
"k@] #@l@m@n@h+o@p@q@r@s@t@. . . u@u@v@w@x@y@z@A@B@v+C@D@%@#@] E@",
"k@] #@,.F@G b+n@G@H@I@J@. . . K@L@M@N@O@P@Q@R@S@T@|.U@V@W@#@U.E@",
"X@U.E+#@Y@Z@`@h  #.#+#@###$#%#&#*#=#-#;#>#,#'#H+)#!#~#_ {#.@U.]#",
"^#,+/#.@T@(#_#|@:#<#[#}#|#1#2#3#4#5#6#7#8#9#y 0#<#a#b#_  @c#,+d#",
"e#E+q.^ f#_#g#h#i#j#_+k#l#m#n#o#p#q#r#s#t#u#v+v#w#y 0#x#`@7 .@y#",
"z#m@] ,+A#B#C#D#:.E#F#G#H#I#J#K#L#M#N#O#P#Q#R#)#S#p V.T#(#U.B+U#",
"+ V#U.7 z.W#g@X#Y#Z#`# $.$+$@$#$$$%$&$*$=$-$c+Y+;$>$,$-+'$)$!$~$",
". {$#@]$] z.^$U@/$($_$:$<$[$}$|$1$2$3$4$5$6$7$$.~#8$9$T#/@0$a$. ",
". ).b$( ] c$d$`@e$f$g$h$i$j$k$l$m$n$o$q#p$q$r$s$:#t$u$I+v$w$x$. ",
". . y$,.z$z.A$^ B$C$D$E$F$G$H$I$J$K$L$q+M$N$O$P$Q$R$/#U.P.S$. . ",
". . T$U$V$W$X$)$Y$Z$`$ %.%+%@%#%$%%%&%*%=%-%;%>%,%'%,+)%!%~%. . ",
". . . {%]%^%/%( (%_%:%<%[%}%|%1%2%3%4%+%5%6%7%8%)$,+9%0%a%. . . ",
". . . . b%c%] 6 d%e%f%g%h%i%j%k%l%m%n%o%p%q%r%s%6 t%u%v%. . . . ",
". . . . . w%x%y%x#z%A%B%C%D%E%F%G%H%I%J%K%L%M%_@N%O%x$. . . . . ",
". . . . . . P%Q%R%S%T%U%V%W%X%Y%Z%`% &.&+&@&#&$&%&&&. . . . . . ",
". . . . . . . . *&=&-&;&] { >&>&,+z$6 ] Y ,&'&)&. . . . . . . . ",
". . . . . . . . . . !&C+~&{&]&^&/&(&_&:&U#<&. . . . . . . . . . ",
"                        [&}&|&|&1&1&2&[&                        "};
