/* XPM */
static char * dogpu16_xpm[] = {
"16 17 213 2",
"  	c None",
". 	c #000000",
"+ 	c #B48C00",
"@ 	c #B48C00",
"# 	c #B48C00",
"$ 	c #B48C00",
"% 	c #B48C00",
"& 	c #B48C00",
"* 	c #B48C00",
"= 	c #B48C00",
"- 	c #B48C00",
"; 	c #B48C00",
"> 	c #B48C00",
", 	c #B48C00",
"' 	c #B48C00",
") 	c #B48C00",
"! 	c #B48C00",
"~ 	c #B48C00",
"{ 	c #B48C00",
"] 	c #B48C00",
"^ 	c #B48C00",
"/ 	c #B48C00",
"( 	c #B48C00",
"_ 	c #B48C00",
": 	c #B48C00",
"< 	c #B48C00",
"[ 	c #B48C00",
"} 	c #B48C00",
"| 	c #FF0400",
"1 	c #FF0400",
"2 	c #FF0300",
"3 	c #FF0000",
"4 	c #B48C00",
"5 	c #B48C00",
"6 	c #B48C00",
"7 	c #B48C00",
"8 	c #B48C00",
"9 	c #B48C00",
"0 	c #B48C00",
"a 	c #B88F00",
"b 	c #CA9D00",
"c 	c #D0A100",
"d 	c #B99100",
"e 	c #BE9600",
"f 	c #D1A801",
"g 	c #C39800",
"h 	c #CFA100",
"i 	c #CCA301",
"j 	c #DAB001",
"k 	c #CBA501",
"l 	c #DEB401",
"m 	c #DBB201",
"n 	c #B78E00",
"o 	c #C39700",
"p 	c #C89F00",
"q 	c #C39A00",
"r 	c #BC9300",
"s 	c #BB9200",
"t 	c #D0A200",
"u 	c #CB9E02",
"v 	c #B68E04",
"w 	c #6E4F00",
"x 	c #6E5100",
"y 	c #8E6D01",
"z 	c #8B6D01",
"A 	c #886701",
"B 	c #785600",
"C 	c #B98D00",
"D 	c #CC9D00",
"E 	c #EEB900",
"F 	c #DEAD00",
"G 	c #D4A500",
"H 	c #F7C000",
"I 	c #AF8A06",
"J 	c #A78202",
"K 	c #513800",
"L 	c #422C00",
"M 	c #633F00",
"N 	c #7D5000",
"O 	c #7C4300",
"P 	c #BA6100",
"Q 	c #BC4F00",
"R 	c #B07300",
"S 	c #BF9300",
"T 	c #D7A702",
"U 	c #BD9300",
"V 	c #ECB800",
"W 	c #E9B501",
"X 	c #9B7905",
"Y 	c #A58001",
"Z 	c #533900",
"` 	c #704C00",
" .	c #953D00",
"..	c #C52D00",
"+.	c #CD3400",
"@.	c #E32901",
"#.	c #F9502B",
"$.	c #CC5400",
"%.	c #BE8E00",
"&.	c #BD9402",
"*.	c #D3A400",
"=.	c #F6C000",
"-.	c #DAAA02",
";.	c #886A04",
">.	c #896A01",
",.	c #725300",
"'.	c #BA8F00",
").	c #D75300",
"!.	c #FD5842",
"~.	c #E61A01",
"{.	c #DA5600",
"].	c #E03F18",
"^.	c #F9624A",
"/.	c #D8550E",
"(.	c #C78801",
"_.	c #E1AF00",
":.	c #F9C200",
"<.	c #E5B202",
"[.	c #997804",
"}.	c #695101",
"|.	c #8D7000",
"1.	c #DAA600",
"2.	c #F35820",
"3.	c #F4531F",
"4.	c #D17300",
"5.	c #C49A00",
"6.	c #3D1902",
"7.	c #C75422",
"8.	c #FD7D7D",
"9.	c #F2674D",
"0.	c #ED8305",
"a.	c #F5BE00",
"b.	c #D7A803",
"c.	c #896C04",
"d.	c #634A00",
"e.	c #735900",
"f.	c #EA7405",
"g.	c #FA6E62",
"h.	c #E27C01",
"i.	c #A27D00",
"j.	c #A38B00",
"k.	c #3F3401",
"l.	c #9D9019",
"m.	c #DB6F14",
"n.	c #FC8483",
"o.	c #F1A261",
"p.	c #E6B300",
"q.	c #E1AF03",
"r.	c #795D03",
"s.	c #513900",
"t.	c #612700",
"u.	c #F57062",
"v.	c #F86A2A",
"w.	c #DBB000",
"x.	c #AA8B00",
"y.	c #7D6300",
"z.	c #7E6300",
"A.	c #DAC10F",
"B.	c #C9A514",
"C.	c #D96D02",
"D.	c #D8941A",
"E.	c #C99C00",
"F.	c #FCC400",
"G.	c #8F6F03",
"H.	c #6F5300",
"I.	c #BF3424",
"J.	c #FC9493",
"K.	c #D37701",
"L.	c #CEAC00",
"M.	c #D4AE00",
"N.	c #D3AD00",
"O.	c #C6A100",
"P.	c #A98A02",
"Q.	c #BD9405",
"R.	c #B88F02",
"S.	c #987504",
"T.	c #CB5F04",
"U.	c #FCA6A6",
"V.	c #E75A32",
"W.	c #B99400",
"X.	c #987B00",
"Y.	c #856A00",
"Z.	c #876A00",
"`.	c #947500",
" +	c #AD8C00",
".+	c #E7B401",
"++	c #C89B00",
"@+	c #B99000",
"#+	c #D68E03",
"$+	c #FB786D",
"%+	c #FCA4A4",
"&+	c #DB7C02",
"*+	c #B99900",
"=+	c #B49300",
"-+	c #AC8C00",
";+	c #826600",
">+	c #B89200",
",+	c #EBB701",
"'+	c #DAA900",
")+	c #BC8602",
"!+	c #F1BB7D",
"~+	c #FC7140",
"{+	c #EDBC00",
"]+	c #E9B900",
"^+	c #EAB800",
"/+	c #EFBB00",
"(+	c #F4BD00",
"_+	c #CEA000",
":+	c #C09001",
"<+	c #E4B200",
"[+	c #DDAC00",
"}+	c #CC9E00",
"|+	c #000000",
"            # $ % & *           ",
"        a b c d e f d d ;       ",
"    , g h i j k l k l m f n     ",
"    o e l p q q r s p j j t n   ",
"  a u v p w x y z A B C D E F ~ ",
"  G H I J K L M N O P Q R S T U ",
"{ V W X Y Z `  ...+.@.#.$.%.&.*.",
"$ =.-.;.>.,.'.).!.~.{.].^./.(._.",
"% :.<.[.}.|.1.2.3.4.5.6.7.8.9.0.",
"] a.b.c.d.e.f.g.h.i.j.k.l.m.n.o.",
"^ p.q.r.s.t.u.v.w.x.y.z.A.B.C.D.",
"  E.F.G.H.I.J.K.L.M.N.O.P.Q.R.a ",
"  ( p.S.T.U.V.W.X.Y.Z.`. +.+++  ",
"    @+#+$+%+&+*+=+-+;+>+,+'+<   ",
"      )+!+~+a.{+]+^+/+(+_+<     ",
"        ~ :+*._.<+[+}+a         ",
"              6 7 8             "};
