/* XPM */
static char * dogpu16_xpm[] = {
"16 17 229 2",
"  	c #FFFFFF",
". 	c #F3ECD5",
"+ 	c #E3CA73",
"@ 	c #E3BC30",
"# 	c #E7B916",
"$ 	c #D4AA16",
"% 	c #C7A530",
"& 	c #DDC571",
"* 	c #F3ECD3",
"= 	c #FDFBF5",
"- 	c #E3CD81",
"; 	c #E5B509",
"> 	c #CEA100",
", 	c #A17C01",
"' 	c #8C6C01",
") 	c #7C6101",
"! 	c #886901",
"~ 	c #8D6D01",
"{ 	c #B99208",
"] 	c #E0CA7E",
"^ 	c #FCFBF5",
"/ 	c #DAC068",
"( 	c #8F6F01",
"_ 	c #745A01",
": 	c #937201",
"< 	c #AB8500",
"[ 	c #8E6E01",
"} 	c #8B6C01",
"| 	c #A47F01",
"1 	c #D9C065",
"2 	c #FEFEFC",
"3 	c #E3D192",
"4 	c #E6B300",
"5 	c #A27E00",
"6 	c #876901",
"7 	c #C39701",
"8 	c #A68101",
"9 	c #B99000",
"0 	c #B99101",
"a 	c #B99100",
"b 	c #D2A301",
"c 	c #886A01",
"d 	c #A88300",
"e 	c #F5BE00",
"f 	c #E4D18E",
"g 	c #F6F1DF",
"h 	c #D8AC11",
"i 	c #BB9201",
"j 	c #BE9401",
"k 	c #D1A400",
"l 	c #B58C08",
"m 	c #845F1B",
"n 	c #80610A",
"o 	c #9A772A",
"p 	c #9F7626",
"q 	c #B38B00",
"r 	c #C99D00",
"s 	c #E2AF00",
"t 	c #FEC500",
"u 	c #EAB90F",
"v 	c #F5F0DD",
"w 	c #E3CF8A",
"x 	c #DDAD00",
"y 	c #947201",
"z 	c #9C7900",
"A 	c #8B7014",
"B 	c #B39160",
"C 	c #D9A56C",
"D 	c #C8894F",
"E 	c #A16E2D",
"F 	c #886906",
"G 	c #987700",
"H 	c #AD8701",
"I 	c #B28A01",
"J 	c #E1AF01",
"K 	c #E5CF87",
"L 	c #E2BF43",
"M 	c #FAC300",
"N 	c #B88F01",
"O 	c #987802",
"P 	c #967331",
"Q 	c #EAAB6F",
"R 	c #EDAC6E",
"S 	c #FFB165",
"T 	c #C08242",
"U 	c #7C5D0A",
"V 	c #876B00",
"W 	c #A37F02",
"X 	c #AF8801",
"Y 	c #D1A200",
"Z 	c #E4BF40",
"` 	c #E8BB20",
" .	c #F4BF00",
"..	c #9C7901",
"+.	c #937200",
"@.	c #816916",
"#.	c #B89D7B",
"$.	c #D7BDA3",
"%.	c #A59C94",
"&.	c #F7CA94",
"*.	c #F2A365",
"=.	c #9A6617",
"-.	c #8A6D00",
";.	c #9B7902",
">.	c #AE8700",
",.	c #D2A300",
"'.	c #EABD1F",
").	c #EABA16",
"!.	c #F7C100",
"~.	c #BA9100",
"{.	c #906E00",
"].	c #7E6614",
"^.	c #B0AEA0",
"/.	c #EBAE88",
"(.	c #955D0C",
"_.	c #846800",
":.	c #AC8601",
"<.	c #D1A300",
"[.	c #EEBC16",
"}.	c #E8BC20",
"|.	c #F6BF00",
"1.	c #9E7B01",
"2.	c #947301",
"3.	c #876800",
"4.	c #846D1C",
"5.	c #B2A88A",
"6.	c #F9F0E1",
"7.	c #FFD3B2",
"8.	c #C57144",
"9.	c #825905",
"0.	c #876D00",
"a.	c #B58D01",
"b.	c #C09600",
"c.	c #D2A400",
"d.	c #EBBD1F",
"e.	c #E2BF42",
"f.	c #F7C200",
"g.	c #A27E01",
"h.	c #A78302",
"i.	c #997600",
"j.	c #755B0A",
"k.	c #AC894A",
"l.	c #E5A463",
"m.	c #FFAB5A",
"n.	c #E28850",
"o.	c #946513",
"p.	c #997900",
"q.	c #B48B00",
"r.	c #D8A800",
"s.	c #E4BF3F",
"t.	c #E3CF89",
"u.	c #FAC400",
"v.	c #BF9401",
"w.	c #B08900",
"x.	c #B78E00",
"y.	c #796529",
"z.	c #B5A380",
"A.	c #C4AD88",
"B.	c #D19E5E",
"C.	c #F9A65F",
"D.	c #9B6923",
"E.	c #907100",
"F.	c #B99001",
"G.	c #C09500",
"H.	c #D3A400",
"I.	c #E5CF85",
"J.	c #F6F0DF",
"K.	c #EBBA10",
"L.	c #EDB800",
"M.	c #9A7700",
"N.	c #97791E",
"O.	c #BAA78A",
"P.	c #FFD398",
"Q.	c #D49958",
"R.	c #B48049",
"S.	c #F9AB62",
"T.	c #BE7B43",
"U.	c #7F5D07",
"V.	c #A58200",
"W.	c #BB9401",
"X.	c #CCA10E",
"Y.	c #F5EFDC",
"Z.	c #E4D18F",
"`.	c #EAB600",
" +	c #CD9F00",
".+	c #A7841C",
"++	c #C0A684",
"@+	c #FFC57F",
"#+	c #9E6826",
"$+	c #9E642D",
"%+	c #FFB469",
"&+	c #C77E4B",
"*+	c #8A5F0C",
"=+	c #D8AC00",
"-+	c #FDC700",
";+	c #E4D08B",
">+	c #FEFDFB",
",+	c #E0C565",
"'+	c #F1BE00",
")+	c #8F6D0E",
"!+	c #765D43",
"~+	c #E49F6A",
"{+	c #EF8E54",
"]+	c #D27D49",
"^+	c #DA844E",
"/+	c #925032",
"(+	c #996B0C",
"_+	c #F4C200",
":+	c #E1C562",
"<+	c #FCFAF4",
"[+	c #E0CA7D",
"}+	c #CA9D07",
"|+	c #9F7B00",
"1+	c #9B6E11",
"2+	c #A96920",
"3+	c #9B6811",
"4+	c #9E7307",
"5+	c #AC8304",
"6+	c #C99E07",
"7+	c #E0C97A",
"8+	c #F2EBD2",
"9+	c #E4CB6F",
"0+	c #DEB92F",
"a+	c #DAB116",
"b+	c #E4B916",
"c+	c #E5BE2D",
"d+	c #E4CA6D",
"e+	c #F2EAD0",
"f+	c #FFFFFE",
"        . + @ # $ % & *         ",
"    = - ; > , ' ) ! ~ { ] =     ",
"  ^ / , ( _ _ : < ( [ } | 1 ^   ",
"2 3 4 5 6 7 8 9 0 a b c d e f 2 ",
"g h i j k l m n o p q r s t u v ",
"w t x y z A B C D E F G H I J K ",
"L M N z O P Q R S T U V W X Y Z ",
"`  ...+.@.#.$.%.&.*.=.-.;.>.,.'.",
").!.~.{.].^.      /.(._.:.~.<.[.",
"}.|.1.2.3.4.5.6.7.8.9.0.a.b.c.d.",
"e.f.g.h.i.j.k.l.m.n.o.p.| q.r.s.",
"t.u.v.w.x.y.z.A.B.C.D.E.F.G.H.I.",
"J.K.L.M.N.O.P.Q.R.S.T.U.V.W.X.Y.",
"2 Z.`. +.+++@+#+$+%+&+*+=+-+;+>+",
"  ^ ,+'+)+!+~+{+]+^+/+(+_+:+<+  ",
"    ^ [+}+|+1+2+3+4+5+6+7+<+    ",
"        8+9+0+a+b+c+d+e+f+      "};
