/* XPM */
static char * dogpu32_xpm[] = {
"32 32 595 2",
"  	c None",
". 	c #B48C00",
"+ 	c #B88F00",
"@ 	c #CB9E00",
"# 	c #DDAC00",
"$ 	c #E6B200",
"% 	c #EAB500",
"& 	c #DEAD00",
"* 	c #E1AF00",
"= 	c #C59900",
"- 	c #C89F00",
"; 	c #CA9D00",
"> 	c #CA9C00",
", 	c #B78E00",
"' 	c #BA9100",
") 	c #DAAA00",
"! 	c #EEB900",
"~ 	c #E8B500",
"{ 	c #B99100",
"] 	c #BE9600",
"^ 	c #C39A00",
"/ 	c #D1A801",
"( 	c #C49900",
"_ 	c #B89501",
": 	c #DEB401",
"< 	c #DAB001",
"[ 	c #D8A800",
"} 	c #C69A00",
"| 	c #CEA000",
"1 	c #F6BF00",
"2 	c #E0AE00",
"3 	c #C89B00",
"4 	c #CBA501",
"5 	c #A18202",
"6 	c #CCA301",
"7 	c #D2A300",
"8 	c #B58C00",
"9 	c #C79B00",
"0 	c #C19600",
"a 	c #DBB201",
"b 	c #B58D00",
"c 	c #BD9300",
"d 	c #C89C01",
"e 	c #BF9500",
"f 	c #B38B00",
"g 	c #EFB900",
"h 	c #8F6C00",
"i 	c #A37D00",
"j 	c #C19601",
"k 	c #C09501",
"l 	c #C39701",
"m 	c #AE8701",
"n 	c #8B6900",
"o 	c #A88300",
"p 	c #D5AC01",
"q 	c #F3BD00",
"r 	c #E3B000",
"s 	c #A78203",
"t 	c #967503",
"u 	c #937202",
"v 	c #AE8804",
"w 	c #A98200",
"x 	c #503700",
"y 	c #644C00",
"z 	c #7B5A00",
"A 	c #B78E01",
"B 	c #B48C01",
"C 	c #B18A01",
"D 	c #B38B01",
"E 	c #715100",
"F 	c #644700",
"G 	c #8E6F00",
"H 	c #F6C000",
"I 	c #FDC400",
"J 	c #D1A300",
"K 	c #C69B05",
"L 	c #9A7907",
"M 	c #927306",
"N 	c #856807",
"O 	c #D0A200",
"P 	c #BC9200",
"Q 	c #8A6700",
"R 	c #492F00",
"S 	c #513800",
"T 	c #593F00",
"U 	c #614700",
"V 	c #755B00",
"W 	c #775C00",
"X 	c #7B5E01",
"Y 	c #866601",
"Z 	c #7D5C00",
"` 	c #593E00",
" .	c #5E4200",
"..	c #6E5400",
"+.	c #C09500",
"@.	c #D4A500",
"#.	c #E7B400",
"$.	c #F1BB00",
"%.	c #F9C100",
"&.	c #FAC200",
"*.	c #BB9200",
"=.	c #DBAA00",
"-.	c #F5BF00",
";.	c #ECB700",
">.	c #8E7007",
",.	c #D7A700",
"'.	c #CB9E01",
").	c #6F4F00",
"!.	c #402800",
"~.	c #352000",
"{.	c #4D3600",
"].	c #3C2500",
"^.	c #604100",
"/.	c #674B00",
"(.	c #684B00",
"_.	c #624500",
":.	c #775800",
"<.	c #8F6D00",
"[.	c #6E4900",
"}.	c #A47700",
"|.	c #CB9A00",
"1.	c #D5A400",
"2.	c #EBB600",
"3.	c #F4BE00",
"4.	c #FCC300",
"5.	c #F8C100",
"6.	c #F1BC00",
"7.	c #E3B001",
"8.	c #755B06",
"9.	c #8A6C04",
"0.	c #836603",
"a.	c #624801",
"b.	c #4A3100",
"c.	c #3E2700",
"d.	c #4E3500",
"e.	c #6A4600",
"f.	c #754600",
"g.	c #855100",
"h.	c #7E5100",
"i.	c #624000",
"j.	c #7D5200",
"k.	c #C98A00",
"l.	c #CF7100",
"m.	c #D15E00",
"n.	c #B15600",
"o.	c #8A5C00",
"p.	c #8E6D00",
"q.	c #937201",
"r.	c #987703",
"s.	c #C49802",
"t.	c #B99000",
"u.	c #FEC500",
"v.	c #F7C000",
"w.	c #EDB800",
"x.	c #E2B000",
"y.	c #816606",
"z.	c #B68F02",
"A.	c #AA8502",
"B.	c #6C5001",
"C.	c #6A4D00",
"D.	c #4D3400",
"E.	c #7B4E00",
"F.	c #974300",
"G.	c #BF3E00",
"H.	c #DA5300",
"I.	c #D26A00",
"J.	c #924000",
"K.	c #8C3000",
"L.	c #ED6600",
"M.	c #FE5C00",
"N.	c #FD4800",
"O.	c #FA5300",
"P.	c #C05D00",
"Q.	c #B88800",
"R.	c #CFA100",
"S.	c #AA8504",
"T.	c #917102",
"U.	c #FDC500",
"V.	c #CDA000",
"W.	c #F5BE00",
"X.	c #E4B201",
"Y.	c #A48105",
"Z.	c #795F04",
"`.	c #A07C01",
" +	c #583C00",
".+	c #432B00",
"++	c #6C4D00",
"@+	c #815C00",
"#+	c #A75900",
"$+	c #EE3F00",
"%+	c #FC2B00",
"&+	c #FC2A00",
"*+	c #FD4B00",
"=+	c #EC5C00",
"-+	c #C82E00",
";+	c #FC3A00",
">+	c #FD4717",
",+	c #FE6445",
"'+	c #FE4C00",
")+	c #ED7200",
"!+	c #A25300",
"~+	c #BD8A00",
"{+	c #BF9403",
"]+	c #987602",
"^+	c #C79A00",
"/+	c #F3BC00",
"(+	c #C89C04",
"_+	c #795F08",
":+	c #806404",
"<+	c #BF9401",
"[+	c #8B6B01",
"}+	c #5A3C00",
"|+	c #7B5C00",
"1+	c #885E00",
"2+	c #C65B00",
"3+	c #FC3B00",
"4+	c #FD4200",
"5+	c #FE6138",
"6+	c #FD450A",
"7+	c #FC2500",
"8+	c #E64400",
"9+	c #FD5100",
"0+	c #FD4911",
"a+	c #FE7E69",
"b+	c #FE6052",
"c+	c #FA6A21",
"d+	c #BD4A00",
"e+	c #CE7600",
"f+	c #C18603",
"g+	c #987302",
"h+	c #FAC300",
"i+	c #F0BB00",
"j+	c #D5A500",
"k+	c #FBC300",
"l+	c #D0A303",
"m+	c #6C5505",
"n+	c #755B04",
"o+	c #BC9201",
"p+	c #7A5E01",
"q+	c #694900",
"r+	c #826200",
"s+	c #C19F00",
"t+	c #C59D00",
"u+	c #E59000",
"v+	c #FE5E00",
"w+	c #FE3C09",
"x+	c #FE887C",
"y+	c #FD5013",
"z+	c #FB1500",
"A+	c #D85400",
"B+	c #F27600",
"C+	c #FE5D00",
"D+	c #FE4100",
"E+	c #FE563C",
"F+	c #FD8F8F",
"G+	c #F45C42",
"H+	c #DD4A03",
"I+	c #CD6902",
"J+	c #A36602",
"K+	c #F9BB00",
"L+	c #F8C000",
"M+	c #DFAD00",
"N+	c #E6B300",
"O+	c #D4A400",
"P+	c #7D6203",
"Q+	c #BB9201",
"R+	c #624B01",
"S+	c #604500",
"T+	c #8A6C00",
"U+	c #D3AF00",
"V+	c #D3A700",
"W+	c #E48600",
"X+	c #FC5E00",
"Y+	c #FE6756",
"Z+	c #FD492D",
"`+	c #FD3B00",
" @	c #ED5100",
".@	c #BE6E00",
"+@	c #CF9300",
"@@	c #CD6500",
"#@	c #C52700",
"$@	c #BC1D00",
"%@	c #F05430",
"&@	c #FC9F9F",
"*@	c #FD8483",
"=@	c #F04628",
"-@	c #C74204",
";@	c #FA9C00",
">@	c #FBB800",
",@	c #E0AF01",
"'@	c #9D7B03",
")@	c #765C03",
"!@	c #A98301",
"~@	c #664D00",
"{@	c #563E00",
"]@	c #A08200",
"^@	c #D2AD00",
"/@	c #D29400",
"(@	c #DF6D00",
"_@	c #F55123",
":@	c #FC857F",
"<@	c #F85902",
"[@	c #EF7900",
"}@	c #CD8000",
"|@	c #B58900",
"1@	c #D7B900",
"2@	c #604700",
"3@	c #2B0608",
"4@	c #3A0107",
"5@	c #A54208",
"6@	c #FD5C2D",
"7@	c #FC9797",
"8@	c #FCAAAA",
"9@	c #FC6B69",
"0@	c #FD5528",
"a@	c #FD7C05",
"b@	c #E3AD00",
"c@	c #C99C04",
"d@	c #7B6107",
"e@	c #816504",
"f@	c #977501",
"g@	c #9F8200",
"h@	c #D3A600",
"i@	c #DA8300",
"j@	c #E64A05",
"k@	c #FD9291",
"l@	c #F3592F",
"m@	c #E46F00",
"n@	c #E29C00",
"o@	c #AC8F00",
"p@	c #E0C200",
"q@	c #A89100",
"r@	c #282104",
"s@	c #231709",
"t@	c #7B5305",
"u@	c #FCA92F",
"v@	c #F14A1F",
"w@	c #FC8A89",
"x@	c #FCB7B7",
"y@	c #FC8F8E",
"z@	c #FD6A5C",
"A@	c #E1A604",
"B@	c #CA9E04",
"C@	c #967608",
"D@	c #896C04",
"E@	c #846600",
"F@	c #604600",
"G@	c #583F00",
"H@	c #6E5300",
"I@	c #DD9900",
"J@	c #F16B00",
"K@	c #FA6C58",
"L@	c #FB9290",
"M@	c #E45102",
"N@	c #D68200",
"O@	c #DAAC00",
"P@	c #997A00",
"Q@	c #CAAC00",
"R@	c #B09900",
"S@	c #3A3003",
"T@	c #392E02",
"U@	c #93820C",
"V@	c #FFEB3F",
"W@	c #D0811C",
"X@	c #E73F0B",
"Y@	c #FC7D7B",
"Z@	c #FCBABA",
"`@	c #FAAA8E",
" #	c #D5A602",
".#	c #CDA004",
"+#	c #997809",
"@#	c #846704",
"##	c #695000",
"$#	c #523B00",
"%#	c #5B3700",
"&#	c #C76300",
"*#	c #F64C22",
"=#	c #FCB5B5",
"-#	c #F95833",
";#	c #E47700",
">#	c #D09800",
",#	c #C5A100",
"'#	c #745D00",
")#	c #453602",
"!#	c #766502",
"~#	c #584A00",
"{#	c #3D3102",
"]#	c #4B3D01",
"^#	c #D0BE13",
"/#	c #F4E628",
"(#	c #C8A41D",
"_#	c #CA7D03",
":#	c #D43A08",
"<#	c #FD7271",
"[#	c #F5B47E",
"}#	c #CC9E00",
"|#	c #FFC600",
"1#	c #D1A304",
"2#	c #7F650A",
"3#	c #765D04",
"4#	c #644B00",
"5#	c #4C3500",
"6#	c #4B3000",
"7#	c #682800",
"8#	c #C82706",
"9#	c #FC9796",
"0#	c #FC9897",
"a#	c #F85B03",
"b#	c #E79B00",
"c#	c #D1A800",
"d#	c #C9A600",
"e#	c #B59400",
"f#	c #8C7000",
"g#	c #7E6100",
"h#	c #775B00",
"i#	c #765C00",
"j#	c #AA8A00",
"k#	c #E0C004",
"l#	c #E9DA2D",
"m#	c #D3A80C",
"n#	c #C29703",
"o#	c #A46B02",
"p#	c #FF5B06",
"q#	c #E08420",
"r#	c #EFBA01",
"s#	c #AA8506",
"t#	c #755C04",
"u#	c #5F4500",
"v#	c #483100",
"w#	c #532900",
"x#	c #9A1B00",
"y#	c #F15E5B",
"z#	c #FCC4C4",
"A#	c #F8563F",
"B#	c #F08200",
"C#	c #E8B400",
"D#	c #DEBA00",
"E#	c #D2AE00",
"F#	c #CBA800",
"G#	c #BB9800",
"H#	c #B19000",
"I#	c #BE9B00",
"J#	c #D1AA00",
"K#	c #D1B004",
"L#	c #C5AC1A",
"M#	c #C39905",
"N#	c #C79C03",
"O#	c #9B7902",
"P#	c #FAB400",
"Q#	c #BA8D00",
"R#	c #DCAB00",
"S#	c #806306",
"T#	c #6B5200",
"U#	c #654800",
"V#	c #822900",
"W#	c #DE3228",
"X#	c #FCB8B8",
"Y#	c #FC9B9A",
"Z#	c #EB4807",
"`#	c #B06F00",
" $	c #DAB400",
".$	c #EEC800",
"+$	c #DBB600",
"@$	c #D0AA00",
"#$	c #D1AC00",
"$$	c #CCA700",
"%$	c #C29E00",
"&$	c #D3AD00",
"*$	c #C39F00",
"=$	c #947602",
"-$	c #BA9601",
";$	c #E1AF01",
">$	c #B38B03",
",$	c #957402",
"'$	c #BB9100",
")$	c #F9C200",
"!$	c #F4BE01",
"~$	c #675004",
"{$	c #B47700",
"]$	c #D3310C",
"^$	c #FC9494",
"/$	c #F85B4C",
"($	c #E27200",
"_$	c #B58A00",
":$	c #816700",
"<$	c #997C00",
"[$	c #B18F00",
"}$	c #BF9C00",
"|$	c #CDA800",
"1$	c #D2AC00",
"2$	c #CEAA00",
"3$	c #B69400",
"4$	c #7D5F00",
"5$	c #947500",
"6$	c #AE8E00",
"7$	c #997803",
"8$	c #C19602",
"9$	c #D1A200",
"0$	c #F4BD01",
"a$	c #795D05",
"b$	c #876200",
"c$	c #DE5B00",
"d$	c #FB6B64",
"e$	c #FCC4C3",
"f$	c #FC9E9E",
"g$	c #E54010",
"h$	c #CE8D00",
"i$	c #BA9800",
"j$	c #AF9000",
"k$	c #886D00",
"l$	c #6F5800",
"m$	c #705800",
"n$	c #785F00",
"o$	c #806500",
"p$	c #866900",
"q$	c #A28300",
"r$	c #C8A100",
"s$	c #D3A400",
"t$	c #F8C001",
"u$	c #8D6D06",
"v$	c #C56800",
"w$	c #F84F35",
"x$	c #FCB1B1",
"y$	c #FCC0BF",
"z$	c #FB665E",
"A$	c #CF5E00",
"B$	c #B48F00",
"C$	c #B19100",
"D$	c #B89700",
"E$	c #BD9C00",
"F$	c #AD8E00",
"G$	c #957900",
"H$	c #604A00",
"I$	c #6B5100",
"J$	c #785A00",
"K$	c #A18100",
"L$	c #BE9C00",
"M$	c #CBA300",
"N$	c #E7B500",
"O$	c #E5B200",
"P$	c #E5B101",
"Q$	c #CD8604",
"R$	c #FA5012",
"S$	c #FC9695",
"T$	c #FCC3C3",
"U$	c #FCA2A1",
"V$	c #F24D1C",
"W$	c #CE9300",
"X$	c #B99900",
"Y$	c #B39300",
"Z$	c #AC8D00",
"`$	c #AE8F00",
" %	c #917500",
".%	c #6F5400",
"+%	c #795C00",
"@%	c #B99400",
"#%	c #DBAF00",
"$%	c #EFBB00",
"%%	c #EAB600",
"&%	c #B68E00",
"*%	c #EB7B03",
"=%	c #FD7675",
"-%	c #FD736F",
";%	c #EC6F01",
">%	c #D9B000",
",%	c #D6B100",
"'%	c #CEAB00",
")%	c #C4A100",
"!%	c #BB9700",
"~%	c #BC9800",
"{%	c #BF9A00",
"]%	c #C69F00",
"^%	c #BF9800",
"/%	c #E5B400",
"(%	c #F8C200",
"_%	c #FEC600",
":%	c #E4B100",
"<%	c #B88601",
"[%	c #E6A34D",
"}%	c #FCC0B8",
"|%	c #FCA4A3",
"1%	c #FE552A",
"2%	c #FAAB00",
"3%	c #F1BE00",
"4%	c #ECBB00",
"5%	c #EAB900",
"6%	c #E7B800",
"7%	c #E4B400",
"8%	c #EDBA00",
"9%	c #C69A1E",
"0%	c #F09251",
"a%	c #FC7203",
"b%	c #FFC400",
"c%	c #BA8F00",
"d%	c #F0BA00",
"                        . . . . . . . .                         ",
"                  . + @ # $ % & * = - ; > , .                   ",
"                ' ) ! ~ { ] ^ / ( _ : < [ - } ' .               ",
"            . | 1 2 ] 3 4 5 4 _ ] _ 4 / 6 : : 7 ; .             ",
"          8 9 { 0 / 4 < _ _ 4 4 ] a 4 6 4 5 < / - @ b           ",
"        b ; : : 5 ^ a 4 / a ^ c d e ^ ^ < f ^ _ 6 < | b         ",
"      . 2 g ^ 4 : ^ h i j ^ k j j l l m n o : p _ ] q r .       ",
"    . s t u v - _ w x y z A B C C D A E F G ^ a ^ ) H I J .     ",
"    ' K L M N O P Q R S T U V W X Y Z `  ...= +.@.#.$.%.&.*.    ",
"  . =.I -.;.>.,.'.).!.~.{.].^././.(._.:.<.[.}.|.1.2 2.3.4.# .   ",
"  + 5.&.6.7.8.9.0.a.b.c.{.d.e.f.g.h.i.j.k.l.m.n.o.p.q.r.s.&.t.  ",
"  @ u.v.w.x.y.z.A.B.C.D.` E.F.G.H.I.J.K.L.M.N.O.P.Q.R.S.T.U.V.+ ",
". 2 I W.X.Y.Z.l `. +.+++@+#+$+%+&+*+=+-+;+>+,+'+)+!+~+{+]+4.r ^+",
". g 4./+(+_+:+<+[+}+b.|+1+2+3+4+5+6+7+8+9+0+a+b+c+d+e+f+g+h+i+j+",
". v.k+$.l+m+n+o+p+q+r+s+t+u+v+w+x+y+z+A+B+C+D+E+F+G+H+I+J+K+L+M+",
". &.k+$.N+O+P+Q+R+S+T+U+V+W+X+Y+Z+`+ @.@+@@@#@$@%@&@*@=@-@;@>@r ",
". k+k+$.,@'@)@!@~@{@]@^@/@(@_@:@<@[@}@|@1@2@3@4@5@6@7@8@9@0@a@b@",
". v.4./+c@d@e@f@~@{@g@h@i@j@k@l@m@n@t.o@p@q@r@s@t@u@v@w@x@y@z@A@",
". g I W.B@C@D@E@F@G@H@I@J@K@L@M@N@O@P@H@Q@R@S@T@U@V@W@X@Y@Z@`@ #",
". * u.L+.#+#@###$#$#%#&#*#=#-#;#>#,#'#)#!#~#{#]#^#/#(#_#:#<#[#9 ",
"  }#|#&.1#2#3#4#5#6#7#8#9#0#a#b#c#d#e#f#g#h#i#j#k#l#m#n#o#p#q#+ ",
"  + %.I r#s#t#u#v#w#x#y#z#A#B#C#D#U+E#F#G#H#I#J#K#L#M#N#O#P#Q#  ",
"  . R#|#&./+S#T#U#V#W#X#Y#Z#`# $.$+$@$#$$$%$&$*$=$-$;$>$,$M+.   ",
"    '$)$u.!$~$f#{$]$^$z#/$($_$:$<$[$}$|$1$2$3$4$5$6$r.7$8$P     ",
"    . 9$|#0$a$b$c$d$e$f$g$h$i$j$k$l$m$n$o$p$g#q$e#r$&.|#s$.     ",
"      . x.t$u$v$w$x$y$z$A$B$C$D$E$F$G$H$I$J$K$L$M$N$u.O$.       ",
"        b P$Q$R$S$T$U$V$W$X$Y$Z$`$`$D$ %.%+%@%#%$%I %%&%        ",
"          b *%=%Z@Z@-%;%>%,%'%)%!%~%{%]%^%*./%(%_%:%&%          ",
"            <%[%}%|%1%2%3%4%5%6%6%7%N$8%-.L+u.&.@..             ",
"              . 9%0%a%b%|#|#u.U.U.u.|#|#|#%.& c .               ",
"                  . c%| x.d%v.k+k+v.i+r | ' .                   ",
"                      + ^+@.& r r M+j+9 +                       "};
